# xmcd CD database file
#
# Track frame offsets:
#	150
#	14237
#	27395
#	42315
#	54953
#	67144
#	80429
#	93764
#	106939
#	120354
#	132420
#	145090
#	157195
#	167714
#	188217
#	200258
#	226283
#	239123
#	251550
#	261227
#	273569
#	287099
#	300867
#	313977
#	322823
#	335361
#
# Disc length: 4647 seconds
#
# Revision: 0
# Processed by: cddbd v1.5.2PL0 Copyright (c) Steve Scherf et al.
# Submitted via: CDex 1.51
#
DISCID=7912251a
DTITLE=George Shearing - Lullaby of Birdland - CD2
DYEAR=2011
DGENRE=Jazz
TTITLE0=East of the Sun
TTITLE1=Conception
TTITLE2=I didn't know what time it was
TTITLE3=I'll remember April
TTITLE4=Jumpin' with Symphony Sid
TTITLE5=Little White Lies
TTITLE6=Roses of Picardy
TTITLE7=Pick Yourself Up
TTITLE8=I'll be around
TTITLE9=Taking a Chance on Love
TTITLE10=How High the Moon?
TTITLE11=Love is just around the corner
TTITLE12=Mambo Inn
TTITLE13=The Folks Who Live on the Hill
TTITLE14=If I Should Loose You
TTITLE15=Stella By Starlight
TTITLE16=IF
TTITLE17=Serenata
TTITLE18=Sand In My Shoes
TTITLE19=Mambo No. 2
TTITLE20=Moonlight becomes you
TTITLE21=Do I love you, do I?
TTITLE22=Isn't it romantic?
TTITLE23=Always True To You in My Fashion
TTITLE24=Satin Doll
TTITLE25=The Nearness of You
EXTD=YEAR: 2011
EXTT0=
EXTT1=
EXTT2=
EXTT3=
EXTT4=
EXTT5=
EXTT6=
EXTT7=
EXTT8=
EXTT9=
EXTT10=
EXTT11=
EXTT12=
EXTT13=
EXTT14=
EXTT15=
EXTT16=
EXTT17=
EXTT18=
EXTT19=
EXTT20=
EXTT21=
EXTT22=
EXTT23=
EXTT24=
EXTT25=
PLAYORDER=
